<svg viewBox="0 0 50 50" xmlns="http://www.w3.org/2000/svg">
  <path d="M25 4.167A20.833 20.833 0 0 0 4.167 25c0 9.208 5.979 17.021 14.25 19.792 1.042 0.167 1.375 -0.479 1.375 -1.042v-3.521c-5.771 1.25 -7 -2.792 -7 -2.792 -0.958 -2.417 -2.313 -3.063 -2.313 -3.063 -1.896 -1.292 0.146 -1.25 0.146 -1.25 2.083 0.146 3.188 2.146 3.188 2.146 1.813 3.167 4.875 2.229 6.063 1.729 0.188 -1.354 0.729 -2.271 1.313 -2.792 -4.625 -0.521 -9.479 -2.313 -9.479 -10.25 0 -2.313 0.792 -4.167 2.146 -5.646 -0.208 -0.521 -0.938 -2.688 0.208 -5.5 0 0 1.75 -0.563 5.729 2.125 1.646 -0.458 3.438 -0.688 5.208 -0.688s3.563 0.229 5.208 0.688c3.979 -2.688 5.729 -2.125 5.729 -2.125 1.146 2.813 0.417 4.979 0.208 5.5 1.354 1.479 2.146 3.333 2.146 5.646 0 7.958 -4.875 9.708 -9.521 10.229 0.75 0.646 1.438 1.917 1.438 3.854V43.75c0 0.563 0.333 1.229 1.396 1.042C39.875 42 45.833 34.208 45.833 25A20.833 20.833 0 0 0 25 4.167z" />
</svg>