<svg width="24" height="24" viewBox="3 3 18 18" xmlns="http://www.w3.org/2000/svg">
    <path
        d="M18.9213 13.047C18.7268 14.3329 18.1764 15.5467 17.3228 16.5461C16.2404 17.8135 14.7412 18.6531 13.095 18.9138C11.4488 19.1746 9.76363 18.8394 8.34251 17.9685C6.9214 17.0976 5.85765 15.7483 5.34261 14.1631C4.82756 12.578 4.89502 10.8611 5.53284 9.32123C6.17067 7.78138 7.33701 6.51964 8.82207 5.76297C10.3071 5.00629 12.0134 4.80433 13.6341 5.19342C14.9122 5.50025 16.0708 6.15876 16.9841 7.08478C16.984 7.08634 16.9838 7.08832 16.9835 7.09072C16.9803 7.11492 16.9623 7.15862 16.9135 7.19405C16.8771 7.22052 16.8195 7.24295 16.7223 7.23083C16.6183 7.21785 16.4955 7.16578 16.3924 7.07387C15.5849 6.35384 14.6069 5.83833 13.5407 5.58237C12.0127 5.21551 10.4039 5.40593 9.00366 6.11937C7.60346 6.83281 6.50378 8.02244 5.9024 9.4743C5.30102 10.9262 5.23741 12.545 5.72303 14.0395C6.20864 15.5341 7.2116 16.8063 8.55151 17.6274C9.89142 18.4485 11.4803 18.7646 13.0325 18.5188C14.5846 18.2729 15.9981 17.4813 17.0187 16.2864C17.7308 15.4526 18.219 14.4607 18.449 13.4036C18.4784 13.2686 18.5472 13.1543 18.6237 13.0826C18.6952 13.0157 18.755 13 18.8 13C18.8603 13 18.9005 13.0248 18.9174 13.0425C18.919 13.0442 18.9203 13.0457 18.9213 13.047Z"
        stroke="currentColor" stroke-width="1" />
</svg>