<svg viewBox="0 0 24 24" stroke='none' xmlns="http://www.w3.org/2000/svg">
  <path d="m17.25 15a3.75 3.75 0 0 0 -2.917 1.417l-5.482 -3.428a3.345 3.345 0 0 0 0 -1.98l5.482 -3.428a3.75 3.75 0 1 0 -0.833 -2.333 3.593 3.593 0 0 0 0.15 0.99l-5.482 3.428a3.75 3.75 0 1 0 0 4.665l5.482 3.428a3.593 3.593 0 0 0 -0.15 0.99 3.75 3.75 0 1 0 3.75 -3.75zm0 -12a2.25 2.25 0 1 1 -2.25 2.25 2.25 2.25 0 0 1 2.25 -2.25zm-12 11.25a2.25 2.25 0 1 1 2.25 -2.25 2.25 2.25 0 0 1 -2.25 2.25zm12 6.75a2.25 2.25 0 1 1 2.25 -2.25 2.25 2.25 0 0 1 -2.25 2.25z" />
</svg>