<svg xmlns="http://www.w3.org/2000/svg" viewBox="0 0 24 24">
  <path d="M12 5.813a6.188 6.188 0 1 0 6.188 6.188 6.195 6.195 0 0 0 -6.188 -6.188Zm0 11.25a5.063 5.063 0 1 1 5.063 -5.063 5.068 5.068 0 0 1 -5.063 5.063Zm-0.563 -13.688V1.5a0.563 0.563 0 0 1 1.125 0v1.875a0.563 0.563 0 0 1 -1.125 0ZM4.178 4.973a0.563 0.563 0 0 1 0.795 -0.795l1.326 1.326a0.563 0.563 0 0 1 -0.795 0.795ZM3.938 12a0.563 0.563 0 0 1 -0.563 0.563H1.5a0.563 0.563 0 0 1 0 -1.125h1.875a0.563 0.563 0 0 1 0.563 0.563Zm2.361 5.701a0.563 0.563 0 0 1 0 0.795l-1.326 1.326a0.563 0.563 0 1 1 -0.795 -0.795l1.326 -1.326a0.563 0.563 0 0 1 0.795 0ZM12.563 20.625v1.875a0.563 0.563 0 0 1 -1.125 0v-1.875a0.563 0.563 0 0 1 1.125 0Zm7.26 -1.598a0.563 0.563 0 1 1 -0.795 0.795l-1.326 -1.326a0.563 0.563 0 0 1 0.795 -0.795ZM23.063 12a0.563 0.563 0 0 1 -0.563 0.563h-1.875a0.563 0.563 0 0 1 0 -1.125h1.875a0.563 0.563 0 0 1 0.563 0.563Zm-3.24 -7.822a0.563 0.563 0 0 1 0 0.795l-1.326 1.326a0.563 0.563 0 0 1 -0.795 -0.795l1.326 -1.326a0.562 0.562 0 0 1 0.795 0Z" />
</svg>